<?xml version="1.0" standalone="no"?>
<!DOCTYPE svg PUBLIC "-//W3C//DTD SVG 20010904//EN"
 "http://www.w3.org/TR/2001/REC-SVG-20010904/DTD/svg10.dtd">
<svg version="1.0" xmlns="http://www.w3.org/2000/svg"
 width="166.000000pt" height="49.000000pt" viewBox="0 0 166.000000 49.000000"
 preserveAspectRatio="xMidYMid meet">

<g transform="translate(0.000000,49.000000) scale(0.100000,-0.100000)"
fill="#000000" stroke="none">
<path d="M173 473 c9 -2 23 -2 30 0 6 3 -1 5 -18 5 -16 0 -22 -2 -12 -5z"/>
<path d="M251 417 c5 -36 -22 -57 -47 -36 -12 9 -13 9 -8 -4 4 -11 -2 -20 -19
-28 -15 -7 -23 -17 -20 -25 3 -8 0 -14 -7 -14 -9 0 -7 -8 5 -26 16 -25 16 -25
-5 -14 -14 8 -20 18 -17 30 3 11 -2 25 -10 32 -12 10 -18 9 -29 -6 -13 -18
-14 -18 -23 5 l-9 24 -6 -25 c-14 -52 37 -112 80 -96 7 3 15 0 18 -7 3 -9 7
-9 13 -1 13 17 52 36 63 29 6 -3 10 -1 10 4 0 6 -4 11 -10 11 -5 0 -10 4 -10
9 0 5 9 7 21 4 11 -3 18 -11 15 -19 -3 -7 0 -16 5 -20 6 -3 9 -15 6 -25 -4
-15 -2 -17 13 -9 64 34 90 139 48 191 -16 21 -79 34 -77 16z m-47 -93 c9 -23
8 -26 -6 -18 -8 5 -9 2 -5 -9 5 -12 1 -17 -13 -17 -24 0 -27 18 -4 27 8 3 13
12 10 19 -3 8 -1 14 3 14 5 0 12 -7 15 -16z"/>
<path d="M220 389 c0 -5 5 -7 10 -4 6 3 10 8 10 11 0 2 -4 4 -10 4 -5 0 -10
-5 -10 -11z"/>
<path d="M503 378 c2 -7 13 -46 23 -87 27 -105 56 -109 69 -9 4 26 11 50 15
53 10 6 30 -57 30 -93 0 -21 24 -41 36 -30 2 3 13 35 23 71 11 36 22 74 26 86
4 15 2 21 -9 21 -14 0 -21 -17 -40 -103 -7 -32 -26 -27 -26 6 0 40 -21 97 -35
97 -13 0 -35 -55 -35 -90 0 -8 -4 -21 -9 -29 -9 -14 -15 0 -35 92 -4 15 -13
27 -22 27 -9 0 -14 -6 -11 -12z"/>
<path d="M1010 300 c0 -73 3 -90 15 -90 10 0 15 10 15 30 0 17 4 30 10 30 5 0
16 -13 25 -30 9 -18 23 -30 35 -30 19 0 19 2 -6 41 l-26 41 23 24 c32 34 3 31
-33 -3 l-28 -27 0 52 c0 40 -4 52 -15 52 -12 0 -15 -17 -15 -90z"/>
<path d="M1219 369 c-6 -12 -22 -52 -34 -90 -19 -55 -21 -69 -10 -69 8 0 19 9
25 20 8 14 21 20 46 20 27 0 37 -5 41 -20 3 -11 13 -20 23 -20 17 0 16 7 -11
82 -17 45 -32 85 -35 90 -10 15 -33 8 -45 -13z m41 -45 c16 -42 12 -54 -19
-54 -28 0 -28 0 -18 40 13 46 24 50 37 14z"/>
<path d="M770 332 c-50 -41 -14 -139 47 -128 40 8 53 25 53 72 0 66 -52 95
-100 56z m68 -60 c-2 -29 -8 -38 -25 -40 -27 -4 -47 29 -37 61 9 29 24 38 47
26 14 -8 17 -19 15 -47z"/>
<path d="M940 337 c-22 -11 -25 -20 -28 -70 -2 -35 1 -57 8 -57 5 0 10 18 10
39 0 37 19 71 41 71 5 0 9 7 9 15 0 18 -7 19 -40 2z"/>
<path d="M1406 338 c4 -7 3 -8 -5 -4 -6 4 -18 2 -26 -4 -20 -16 -22 -184 -2
-178 6 3 13 19 15 36 3 28 6 31 22 22 23 -12 65 2 74 25 10 27 7 70 -7 89 -15
20 -83 34 -71 14z m52 -60 c-6 -62 -68 -65 -68 -4 0 41 23 60 53 44 13 -6 17
-18 15 -40z"/>
<path d="M1560 341 c-30 -8 -38 -34 -39 -123 -1 -54 2 -68 14 -68 10 0 15 11
15 35 0 38 2 40 31 24 16 -8 26 -7 45 6 34 22 35 96 2 119 -24 17 -30 18 -68
7z m60 -67 c0 -38 -21 -54 -49 -37 -40 25 -12 105 30 83 13 -8 19 -21 19 -46z"/>
<path d="M15 228 c-9 -35 87 -228 113 -228 34 0 43 42 21 102 -10 29 -27 59
-36 66 -10 6 -35 28 -55 48 l-37 37 -6 -25z"/>
<path d="M337 215 c-21 -25 -26 -40 -21 -59 3 -15 10 -28 14 -31 6 -4 60 102
60 119 0 16 -28 1 -53 -29z"/>
<path d="M177 203 c-3 -5 10 -9 29 -10 19 -2 34 2 34 7 0 12 -57 14 -63 3z"/>
<path d="M218 153 l-37 -4 26 -75 c23 -63 30 -74 50 -74 14 0 27 10 36 26 12
23 11 33 -6 80 -11 30 -23 53 -26 52 -3 -1 -23 -3 -43 -5z"/>
</g>
</svg>
